<svg xmlns="http://www.w3.org/2000/svg" viewBox="0 0 512 512">
  <defs>
    <linearGradient id="bg" x1="76" y1="50" x2="440" y2="468" gradientUnits="userSpaceOnUse">
      <stop stop-color="#ff3d6e"/>
      <stop offset="0.52" stop-color="#ffb703"/>
      <stop offset="1" stop-color="#00b4d8"/>
    </linearGradient>
    <filter id="shadow" x="76" y="82" width="360" height="360" filterUnits="userSpaceOnUse" color-interpolation-filters="sRGB">
      <feDropShadow dx="0" dy="18" stdDeviation="18" flood-color="#7a1b2e" flood-opacity="0.24"/>
    </filter>
  </defs>
  <rect width="512" height="512" rx="112" fill="url(#bg)"/>
  <circle cx="256" cy="256" r="142" fill="#ffffff" opacity="0.96" filter="url(#shadow)"/>
  <text x="256" y="307" text-anchor="middle" font-family="Microsoft YaHei, PingFang SC, Noto Sans CJK SC, Arial, sans-serif" font-size="168" font-weight="900" fill="#103d5a">点</text>
  <path d="M358 82l21 51 53 20-53 20-21 51-21-51-53-20 53-20 21-51Z" fill="#fff6bf"/>
  <path d="M414 262l12 29 30 11-30 11-12 29-12-29-30-11 30-11 12-29Z" fill="#ffffff" opacity="0.88"/>
  <path d="M121 365c34 24 72 37 115 39" fill="none" stroke="#ffffff" stroke-width="22" stroke-linecap="round" opacity="0.72"/>
</svg>
